<svg xmlns="http://www.w3.org/2000/svg" width="1024" height="1024" viewBox="0 0 24 24" shape-rendering="crispEdges">
  <rect x="23" y="0" width="1.05" height="1.05"/>
  <rect x="22" y="1" width="1.05" height="1.05"/>
  <rect x="23" y="2" width="1.05" height="1.05"/>
  <rect x="20" y="3" width="1.05" height="1.05"/>
  <rect x="22" y="3" width="1.05" height="1.05"/>
  <rect x="23" y="4" width="1.05" height="1.05"/>
  <rect x="22" y="5" width="2.05" height="1.05"/>
  <rect x="21" y="6" width="1.05" height="1.05"/>
  <rect x="23" y="6" width="1.05" height="1.05"/>
  <rect x="20" y="7" width="1.05" height="1.05"/>
  <rect x="22" y="7" width="2.05" height="1.05"/>
  <rect x="23" y="8" width="1.05" height="1.05"/>
  <rect x="20" y="9" width="1.05" height="1.05"/>
  <rect x="22" y="9" width="2.05" height="1.05"/>
  <rect x="21" y="10" width="1.05" height="1.05"/>
  <rect x="23" y="10" width="1.05" height="1.05"/>
  <rect x="18" y="11" width="1.05" height="1.05"/>
  <rect x="20" y="11" width="4.05" height="1.05"/>
  <rect x="19" y="12" width="1.05" height="1.05"/>
  <rect x="21" y="12" width="3.05" height="1.05"/>
  <rect x="18" y="13" width="1.05" height="1.05"/>
  <rect x="20" y="13" width="4.05" height="1.05"/>
  <rect x="17" y="14" width="1.05" height="1.05"/>
  <rect x="19" y="14" width="1.05" height="1.05"/>
  <rect x="21" y="14" width="3.05" height="1.05"/>
  <rect x="16" y="15" width="1.05" height="1.05"/>
  <rect x="18" y="15" width="6.05" height="1.05"/>
  <rect x="15" y="16" width="1.05" height="1.05"/>
  <rect x="17" y="16" width="1.05" height="1.05"/>
  <rect x="19" y="16" width="1.05" height="1.05"/>
  <rect x="21" y="16" width="3.05" height="1.05"/>
  <rect x="14" y="17" width="1.05" height="1.05"/>
  <rect x="16" y="17" width="1.05" height="1.05"/>
  <rect x="18" y="17" width="6.05" height="1.05"/>
  <rect x="13" y="18" width="1.05" height="1.05"/>
  <rect x="15" y="18" width="1.05" height="1.05"/>
  <rect x="17" y="18" width="7.05" height="1.05"/>
  <rect x="8" y="19" width="1.05" height="1.05"/>
  <rect x="10" y="19" width="1.05" height="1.05"/>
  <rect x="12" y="19" width="12.05" height="1.05"/>
  <rect x="11" y="20" width="1.05" height="1.05"/>
  <rect x="13" y="20" width="1.05" height="1.05"/>
  <rect x="15" y="20" width="1.05" height="1.05"/>
  <rect x="17" y="20" width="7.05" height="1.05"/>
  <rect x="0" y="21" width="1.05" height="1.05"/>
  <rect x="2" y="21" width="1.05" height="1.05"/>
  <rect x="4" y="21" width="1.05" height="1.05"/>
  <rect x="6" y="21" width="1.05" height="1.05"/>
  <rect x="8" y="21" width="1.05" height="1.05"/>
  <rect x="10" y="21" width="14.05" height="1.05"/>
  <rect x="1" y="22" width="1.05" height="1.05"/>
  <rect x="3" y="22" width="1.05" height="1.05"/>
  <rect x="5" y="22" width="1.05" height="1.05"/>
  <rect x="7" y="22" width="1.05" height="1.05"/>
  <rect x="9" y="22" width="1.05" height="1.05"/>
  <rect x="11" y="22" width="13.05" height="1.05"/>
  <rect x="0" y="23" width="3.05" height="1.05"/>
  <rect x="4" y="23" width="20.05" height="1.05"/>
</svg>
