<svg xmlns="http://www.w3.org/2000/svg" width="1024" height="1024" viewBox="0 0 24 24" shape-rendering="crispEdges">
  <rect x="11" y="0" width="1.05" height="1.05"/>
  <rect x="13" y="0" width="11.05" height="1.05"/>
  <rect x="8" y="1" width="1.05" height="1.05"/>
  <rect x="10" y="1" width="14.05" height="1.05"/>
  <rect x="9" y="2" width="1.05" height="1.05"/>
  <rect x="11" y="2" width="13.05" height="1.05"/>
  <rect x="8" y="3" width="1.05" height="1.05"/>
  <rect x="10" y="3" width="14.05" height="1.05"/>
  <rect x="9" y="4" width="1.05" height="1.05"/>
  <rect x="11" y="4" width="1.05" height="1.05"/>
  <rect x="13" y="4" width="11.05" height="1.05"/>
  <rect x="6" y="5" width="1.05" height="1.05"/>
  <rect x="8" y="5" width="1.05" height="1.05"/>
  <rect x="10" y="5" width="14.05" height="1.05"/>
  <rect x="7" y="6" width="1.05" height="1.05"/>
  <rect x="9" y="6" width="1.05" height="1.05"/>
  <rect x="11" y="6" width="13.05" height="1.05"/>
  <rect x="0" y="7" width="1.05" height="1.05"/>
  <rect x="4" y="7" width="1.05" height="1.05"/>
  <rect x="6" y="7" width="1.05" height="1.05"/>
  <rect x="8" y="7" width="16.05" height="1.05"/>
  <rect x="7" y="8" width="1.05" height="1.05"/>
  <rect x="9" y="8" width="15.05" height="1.05"/>
  <rect x="0" y="9" width="1.05" height="1.05"/>
  <rect x="2" y="9" width="1.05" height="1.05"/>
  <rect x="4" y="9" width="1.05" height="1.05"/>
  <rect x="6" y="9" width="18.05" height="1.05"/>
  <rect x="1" y="10" width="1.05" height="1.05"/>
  <rect x="3" y="10" width="1.05" height="1.05"/>
  <rect x="5" y="10" width="1.05" height="1.05"/>
  <rect x="7" y="10" width="17.05" height="1.05"/>
  <rect x="0" y="11" width="24.05" height="1.05"/>
  <rect x="1" y="12" width="3.05" height="1.05"/>
  <rect x="5" y="12" width="19.05" height="1.05"/>
  <rect x="0" y="13" width="24.05" height="1.05"/>
  <rect x="0" y="14" width="24.05" height="1.05"/>
  <rect x="0" y="15" width="24.05" height="1.05"/>
  <rect x="0" y="16" width="24.05" height="1.05"/>
  <rect x="0" y="17" width="24.05" height="1.05"/>
  <rect x="0" y="18" width="24.05" height="1.05"/>
  <rect x="0" y="19" width="24.05" height="1.05"/>
  <rect x="0" y="20" width="24.05" height="1.05"/>
  <rect x="0" y="21" width="24.05" height="1.05"/>
  <rect x="0" y="22" width="24.05" height="1.05"/>
  <rect x="0" y="23" width="24.05" height="1.05"/>
</svg>
