<svg xmlns="http://www.w3.org/2000/svg" width="1024" height="1024" viewBox="0 0 24 24" shape-rendering="crispEdges">
  <rect x="0" y="0" width="24.05" height="1.05"/>
  <rect x="0" y="1" width="24.05" height="1.05"/>
  <rect x="0" y="2" width="24.05" height="1.05"/>
  <rect x="0" y="3" width="24.05" height="1.05"/>
  <rect x="0" y="4" width="24.05" height="1.05"/>
  <rect x="0" y="5" width="24.05" height="1.05"/>
  <rect x="0" y="6" width="24.05" height="1.05"/>
  <rect x="0" y="7" width="24.05" height="1.05"/>
  <rect x="0" y="8" width="24.05" height="1.05"/>
  <rect x="0" y="9" width="24.05" height="1.05"/>
  <rect x="0" y="10" width="24.05" height="1.05"/>
  <rect x="0" y="11" width="24.05" height="1.05"/>
  <rect x="0" y="12" width="24.05" height="1.05"/>
  <rect x="0" y="13" width="24.05" height="1.05"/>
  <rect x="0" y="14" width="24.05" height="1.05"/>
  <rect x="0" y="15" width="24.05" height="1.05"/>
  <rect x="0" y="16" width="24.05" height="1.05"/>
  <rect x="0" y="17" width="24.05" height="1.05"/>
  <rect x="0" y="18" width="24.05" height="1.05"/>
  <rect x="0" y="19" width="24.05" height="1.05"/>
  <rect x="0" y="20" width="24.05" height="1.05"/>
  <rect x="0" y="21" width="24.05" height="1.05"/>
  <rect x="0" y="22" width="24.05" height="1.05"/>
  <rect x="0" y="23" width="24.05" height="1.05"/>
</svg>
